<?xml version="1.0" standalone="no"?>
<!DOCTYPE svg PUBLIC "-//W3C//DTD SVG 1.1//EN" "http://www.w3.org/Graphics/SVG/1.1/DTD/svg11.dtd" >
<svg xmlns="http://www.w3.org/2000/svg" xmlns:xlink="http://www.w3.org/1999/xlink" version="1.1">
<metadata></metadata>
<defs>
<font id="typefaceregular" horiz-adv-x="1148" >
<font-face units-per-em="2048" ascent="1638" descent="-410" />
<missing-glyph horiz-adv-x="692" />
<glyph horiz-adv-x="0" />
<glyph horiz-adv-x="0" />
<glyph unicode="&#xd;" horiz-adv-x="0" />
<glyph unicode=" "  horiz-adv-x="692" />
<glyph unicode="&#x09;" horiz-adv-x="692" />
<glyph unicode="&#xa0;" horiz-adv-x="692" />
<glyph unicode="!" horiz-adv-x="488" d="M110 132q0 66 40 106q42 42 102 42q64 0 102 -42t38 -106t-38 -106q-40 -42 -102 -42q-64 0 -104 42q-38 44 -38 106zM156 352v648v648h190v-1296h-190z" />
<glyph unicode="&#x22;" horiz-adv-x="748" d="M134 1630h176q-10 -162 -34 -488h-108q-12 162 -34 488zM436 1630h176q-12 -162 -34 -486h-108q-10 162 -34 486z" />
<glyph unicode="#" horiz-adv-x="1458" d="M146 502v154h1150v-154h-1150zM146 982v154h1150v-154h-1150zM402 4v814v816h154v-1630h-154zM884 4v814v816h154v-1630h-154z" />
<glyph unicode="$" d="M306 376v274h134v-58v-90v-52v-72q0 -32 10 -58q12 -28 34 -50t50 -34q26 -10 56 -10t56 10q26 12 48 34t34 50q10 26 10 58v166q0 58 -52 130q-54 74 -162 158q-106 84 -160 158q-54 72 -54 136v126q0 52 20 100q22 46 62 88q28 28 60 46t66 28v116h134v-116 q32 -10 64 -28t60 -46q42 -40 62 -88q22 -46 22 -100v-144h-122v142q0 32 -10 58q-12 28 -34 50t-48 32q-26 12 -56 12q-32 0 -58 -12q-26 -10 -48 -32t-34 -50q-10 -26 -10 -58v-56q0 -64 50 -140q52 -76 158 -160q102 -86 154 -156q54 -72 54 -134v-228q0 -58 -22 -108 q-20 -48 -62 -88q-28 -24 -58 -42q-32 -16 -66 -24v-112h-134v112q-36 8 -66 24q-30 18 -60 42q-40 40 -62 88q-20 48 -20 108z" />
<glyph unicode="%" horiz-adv-x="1334" d="M150 1020v112v80v142v88q0 46 12 80q14 34 40 58q26 22 58 34q32 14 68 14t66 -14q30 -12 58 -34q26 -24 40 -58q16 -34 16 -80v-110v-82v-142v-88q0 -42 -16 -74q-14 -32 -40 -58q-28 -26 -58 -36l-24 -8q-20 -4 -42 -4q-36 0 -68 12q-30 12 -58 36q-26 24 -40 56 q-12 32 -12 76zM198 156q238 454 714 1364q54 -32 162 -92q-238 -454 -716 -1362q-54 30 -160 90zM272 1000q0 -18 14 -36t42 -18q8 0 16 2q14 2 22 12q14 14 14 40v124v90v156v96q0 28 -14 42t-38 14q-28 0 -42 -14t-14 -42v-122v-90v-116v-40v-98zM798 180v110v82v142v88 q0 44 12 78q14 36 40 58q26 24 58 36t68 12t66 -12t58 -36q26 -22 40 -58q16 -34 16 -78v-112v-80v-142v-88q0 -42 -16 -74q-14 -34 -40 -58q-28 -26 -58 -38q-30 -10 -66 -10t-68 12q-30 12 -58 36q-26 22 -40 56q-12 32 -12 76zM920 160q0 -20 14 -36q14 -18 42 -18 q26 0 38 14q14 14 14 40v122v90v156v98q0 26 -14 40t-38 14q-28 0 -42 -14t-14 -40v-122v-90v-156v-98z" />
<glyph unicode="&#x26;" horiz-adv-x="1372" d="M150 432q0 58 12 110t38 100q24 48 72 106q46 56 116 118q-42 64 -68 116q-28 54 -44 94q-14 42 -22 82q-10 40 -10 80q0 94 22 166q22 70 64 122q42 54 98 80q58 26 130 26q66 0 118 -26q54 -24 96 -72t62 -110q22 -60 22 -134q0 -48 -10 -92q-8 -42 -24 -84 q-16 -40 -46 -82q-30 -40 -74 -82q-76 -74 -72 -70t-30 -28q86 -134 258 -406q22 68 34 140q14 74 14 156q118 0 110 0q-6 0 46 0q0 -138 -24 -254q-26 -114 -78 -206q26 -42 46 -74t34 -54q58 -94 60 -96t36 -60h-210q-24 40 -74 120q-28 -32 -62 -58t-76 -44 q-40 -20 -82 -30q-42 -8 -84 -8q-92 0 -164 32t-128 94q-52 62 -80 144q-26 82 -26 184zM326 430q0 -64 14 -116q16 -52 46 -92q28 -38 68 -58q42 -20 94 -20q58 0 112 30q52 30 102 92q-42 70 -74 122t-56 90q-20 30 -32 52q-14 24 -26 40q-40 66 -46 76t-52 84 q-10 -8 -30 -28q-62 -64 -90 -132q-30 -68 -30 -140zM418 1248q0 -30 8 -60q6 -32 20 -62q14 -32 30 -64q16 -34 38 -70q58 56 54 54q-2 -4 22 20q30 28 52 54q20 26 32 52q10 24 16 56q6 30 6 68t-12 68q-10 30 -30 54q-18 24 -44 36q-24 14 -56 14t-56 -16 q-26 -16 -44 -46q-18 -34 -26 -74q-10 -38 -10 -84z" />
<glyph unicode="'" horiz-adv-x="416" d="M130 1634h178q-12 -162 -36 -488h-108q-12 162 -34 488z" />
<glyph unicode="(" horiz-adv-x="566" d="M164 818q0 100 12 196t34 184q24 90 58 166q34 78 78 144q26 42 52 72q26 28 52 48q16 -70 16 -66q-2 4 6 -28q-40 -44 -74 -110q-32 -66 -58 -156q-28 -90 -42 -188q-14 -100 -16 -208q0 -48 0 -44q0 2 0 -20q0 -134 18 -254t50 -226q26 -78 56 -138q32 -60 68 -102 q-16 -66 -16 -62q2 4 -6 -24q-32 24 -64 62q-32 40 -62 94q-82 138 -122 302q-40 166 -40 358z" />
<glyph unicode=")" horiz-adv-x="608" d="M148 82q42 48 78 118q34 70 60 168q28 96 40 200t14 218q0 22 0 20t0 8q0 146 -20 278q-22 130 -64 246q-22 64 -48 112q-28 50 -56 88q16 64 16 60q-2 -4 6 26q38 -28 74 -76q36 -46 70 -112q72 -132 106 -290q36 -158 36 -342q0 -172 -34 -322q-34 -152 -102 -286 q-36 -70 -74 -120t-78 -80q-18 64 -16 60q0 -2 -8 26z" />
<glyph unicode="*" horiz-adv-x="848" d="M78 1268q12 48 38 144q82 -36 246 -106l-6 324h126q-4 -110 -8 -332q80 36 244 106l36 -144q-84 -28 -252 -86l162 -258l-102 -90q-50 92 -152 274q-50 -88 -148 -266q-34 28 -102 86q56 88 166 262q-82 28 -248 86z" />
<glyph unicode="+" horiz-adv-x="998" d="M142 638v166h276v402h148v-402h272v-166h-272v-438h-148v438h-276z" />
<glyph unicode="," horiz-adv-x="290" d="M34 -206q8 8 26 50q16 40 32 90q10 32 16 62q6 32 4 54q0 118 0 112q0 -8 0 46h132v-138q0 -48 -12 -96t-36 -96q-24 -52 -40 -86t-36 -58q-64 44 -60 42t-26 18z" />
<glyph unicode="-" horiz-adv-x="520" d="M116 580v120h276v-120h-276z" />
<glyph unicode="." horiz-adv-x="266" d="M80 -2v196h112v-196h-112z" />
<glyph unicode="/" horiz-adv-x="952" d="M38 160l714 1362q48 -28 142 -84q-238 -454 -718 -1360q-46 26 -138 82z" />
<glyph unicode="0" d="M214 372v230v168v102v72v144v158q0 92 28 162t84 120t120 76q66 24 140 24t136 -24q64 -26 120 -74t84 -120t28 -162v-228v-170v-102v-74v-144v-158q0 -86 -28 -154q-28 -66 -84 -118q-56 -48 -120 -72q-64 -26 -136 -26q-74 0 -140 26q-64 24 -120 72q-56 50 -84 118 t-28 154zM474 334q4 -44 30 -78q26 -32 82 -32t82 26q28 28 28 84v252v102v86v108v82v138v98v42v54q0 56 -28 84q-26 28 -82 28t-84 -28t-28 -84v-252v-188v-60v-50v-82v-136v-98v-42v-54z" />
<glyph unicode="1" horiz-adv-x="866" d="M286 2v816v814h258v-1630h-258z" />
<glyph unicode="2" d="M208 2v236l408 702q26 50 36 94q12 44 12 82q0 138 0 130t0 54q0 56 -22 82q-20 28 -64 28t-66 -28q-22 -26 -22 -82q0 -122 0 -116q0 8 0 -46h-254v110q0 92 22 164q24 70 68 118q46 50 108 74q60 26 134 26t136 -26q62 -24 114 -74q54 -48 80 -118q26 -72 26 -164 q0 -82 0 -78t0 -32q0 -88 -20 -166q-22 -80 -66 -152q-50 -88 -88 -152q-36 -66 -64 -114q-22 -38 -38 -66t-28 -48q-48 -84 -54 -96q-8 -12 -60 -106h446v-236h-744z" />
<glyph unicode="3" d="M214 372q0 122 0 114q0 -6 0 48h258v-198q0 -56 26 -82q26 -28 78 -28q54 0 78 28q26 26 26 82v74v54v96v58q0 54 -28 82q-26 26 -82 26q-66 0 -62 0t-24 0v224h86q50 0 76 26q24 28 24 82q0 176 0 166q0 -8 0 70q0 56 -22 82q-24 28 -72 28q-46 0 -70 -28 q-22 -26 -22 -82q0 -148 0 -140t0 -58h-244v150q0 92 22 162t64 118q42 52 100 76q60 26 132 26q74 0 136 -24q64 -26 116 -74q52 -50 78 -120q26 -72 26 -162q0 -120 0 -114t0 -48q0 -74 -16 -132q-14 -60 -44 -102q42 -54 64 -120q22 -64 22 -138q0 -166 0 -156q0 8 0 -66 q0 -86 -26 -154q-28 -66 -80 -118q-52 -48 -116 -72q-66 -26 -142 -26q-74 0 -140 26q-64 24 -116 72q-52 50 -80 118q-26 68 -26 154z" />
<glyph unicode="4" d="M206 274v270q112 362 334 1084h294v-1120h110v-234h-110v-272h-258v272h-370zM428 508h148v42v424q-50 -156 -148 -466z" />
<glyph unicode="5" d="M224 370q0 150 0 142t0 58h256v-236q0 -56 28 -82q26 -28 78 -28t78 28q26 26 26 82v132v98v58v44v82v92q0 56 -26 82q-24 28 -74 28q-48 0 -72 -28q-26 -26 -26 -82q0 -36 0 -34t0 -14h-256v836h690v-236h-432v-232q26 4 50 8t50 4q74 0 136 -26q62 -24 114 -74 q52 -48 78 -116q28 -68 28 -156v-112v-84v-144v-90t-28 -154q-26 -66 -78 -118q-52 -48 -118 -72q-64 -26 -140 -26t-140 26q-64 24 -118 72q-52 50 -78 118t-26 154z" />
<glyph unicode="6" d="M182 380v68v50v86v54q0 24 2 44t6 34q32 138 56 240t42 176q14 60 24 104q10 46 18 78q24 106 30 130q6 26 22 94q4 18 10 40q4 22 12 50h278q-48 -206 -146 -618q10 2 22 2h22q80 0 150 -24q72 -26 130 -74q60 -48 90 -118q28 -70 28 -158v-68v-50v-86v-54 q0 -88 -28 -158q-30 -68 -90 -118q-58 -52 -128 -76q-70 -26 -150 -26q-82 0 -152 26q-70 24 -130 76q-60 50 -88 118q-30 70 -30 158zM462 336q0 -26 8 -46q10 -22 28 -38q18 -14 38 -22t46 -8t46 6q20 8 38 24q18 14 28 36q8 22 8 48v90v68v116v70q0 28 -8 48 q-10 20 -28 36t-38 24t-44 8q-26 0 -46 -8q-20 -6 -38 -24q-20 -14 -30 -34q-8 -22 -8 -50v-90v-66v-86v-30v-72z" />
<glyph unicode="7" d="M198 1394v236h740v-198q-30 -58 -86 -174l-4 -12t-4 -14q-36 -120 -70 -226q-36 -106 -72 -276q-38 -180 -56 -362t-18 -366h-68h-50h-86h-54q0 414 78 762q76 348 232 630h-126h-94h-162h-100z" />
<glyph unicode="8" d="M216 370q0 168 0 158q0 -8 0 66t22 138t66 118q-32 44 -46 102t-14 134q0 120 0 114t0 48q0 92 24 162q26 70 78 120q46 44 102 68t122 28q12 0 10 0h4q58 -2 118 -28q62 -24 110 -70q52 -50 78 -120q26 -72 26 -164q0 -120 0 -114q0 8 0 -46q0 -74 -14 -134 q-16 -58 -46 -102q44 -54 64 -118q22 -64 22 -138q0 -166 0 -158q0 10 0 -64q0 -86 -26 -154q-26 -66 -80 -118q-52 -48 -116 -72q-64 -26 -140 -26t-140 26q-66 24 -118 72q-52 50 -78 118q-28 68 -28 154zM472 336q0 -56 26 -82q28 -28 80 -28t78 28q24 26 24 82v74v54v96 v58q0 54 -24 82q-26 26 -78 28q-52 -2 -80 -28q-26 -28 -26 -80v-74v-30v-26v-94v-60zM484 1060q0 -52 24 -80q22 -26 70 -28q46 2 70 28q24 28 24 80q0 176 0 166t0 70q0 56 -24 82q-24 28 -70 28q-48 0 -70 -28q-24 -26 -24 -82v-78q0 -96 0 -90q0 10 0 -68z" />
<glyph unicode="9" d="M176 994v68v50v88v52q0 90 28 158q30 70 90 120t130 76q70 24 152 24q78 0 150 -24q70 -26 128 -76q60 -50 90 -120q30 -68 30 -158v-68v-48v-88v-54q0 -24 -2 -44t-6 -34q-32 -138 -56 -240t-42 -178q-14 -58 -24 -104q-10 -44 -18 -76q-26 -106 -32 -132 q-6 -24 -22 -94q-4 -16 -8 -38q-6 -22 -12 -52h-278q50 206 148 620q-14 0 -24 -2q-12 -2 -22 -2q-82 0 -152 26q-70 24 -130 74q-60 48 -90 118q-28 70 -28 158zM458 952q0 -28 8 -48q10 -20 28 -36t40 -24q20 -8 44 -8t44 8q20 6 38 24q18 14 26 34q10 22 10 50v90v66v116 v72q0 28 -8 48q-10 20 -26 36q-18 14 -38 24q-20 8 -46 8t-46 -8t-38 -24q-18 -14 -28 -36q-8 -20 -8 -48v-48v-42v-68v-114v-72z" />
<glyph unicode=":" horiz-adv-x="350" d="M124 0v198h112v-198h-112zM124 924v198h112v-198h-112z" />
<glyph unicode=";" horiz-adv-x="420" d="M74 -214q6 10 24 50q18 42 34 90q10 32 16 62q6 32 4 54v118v40h130v-138q0 -48 -12 -96t-34 -96q-24 -50 -42 -84q-16 -34 -34 -60l-64 46zM164 914v200h114v-200h-114z" />
<glyph unicode="=" horiz-adv-x="722" d="M206 948v122h276v-122h-276zM216 334v122h276v-122h-276z" />
<glyph unicode="?" horiz-adv-x="938" d="M114 1228q2 94 26 168q26 76 74 130q50 56 114 82q64 28 142 28q80 0 144 -28q64 -30 110 -86q46 -58 68 -136q24 -80 24 -180q0 -98 -34 -194q-36 -96 -106 -192q-68 -96 -64 -90q2 4 -28 -38q-30 -46 -42 -160q-14 -116 -14 -204q-132 0 -124 0q6 0 -52 0q2 20 2 42 q2 22 2 44q4 70 8 134q2 66 12 98q12 42 44 96q30 56 78 122q54 76 50 72q-2 -4 22 30q34 56 52 114t18 118t-10 106q-12 48 -34 80q-22 34 -54 52q-30 16 -70 16t-70 -14q-32 -16 -58 -46q-26 -32 -38 -72t-12 -92q-134 0 -128 0q8 0 -52 0zM346 84q0 18 8 36q8 20 22 32 q12 14 30 22q20 8 38 8t38 -8q18 -8 32 -22q12 -12 20 -32q8 -18 8 -36t-8 -38q-8 -18 -20 -32q-14 -12 -32 -20q-20 -8 -38 -8t-38 8q-18 8 -30 20q-14 14 -22 32q-8 20 -8 38z" />
<glyph unicode="A" horiz-adv-x="950" d="M154 6q74 542 226 1624h174q76 -540 224 -1624h-152q-54 424 -160 1272l-162 -1272h-150z" />
<glyph unicode="B" horiz-adv-x="868" d="M162 2v814v810h250q66 -2 118 -24t98 -70q48 -46 72 -102q22 -54 22 -116v-70v-50v-90v-54q0 -68 -26 -128q-28 -60 -84 -110q56 -50 84 -110q26 -60 26 -128v-70v-50v-88v-54q0 -68 -22 -124q-24 -56 -72 -100q-46 -42 -100 -64t-116 -22h-66h-48h-84h-52zM314 140h102 q38 0 66 12q30 12 52 38t32 56t10 68v70v50v88v54q0 38 -10 68q-10 32 -32 52q-22 22 -52 34q-30 10 -66 10h-76h-26v-152v-448zM314 890h102q38 0 66 12q30 12 52 38t32 52q10 28 10 58v70v50v88v54q0 38 -10 70t-32 58q-22 24 -52 38q-30 12 -66 12h-76h-26v-152v-448z " />
<glyph unicode="C" horiz-adv-x="918" d="M148 312v262v194v114v86v144v102v44v56q0 60 24 116q24 54 70 100q48 46 102 72q54 24 114 24q62 0 116 -24q54 -22 100 -70q50 -46 74 -102q22 -56 22 -116v-122v-42h-136v164q0 38 -12 68q-14 32 -38 56q-26 26 -56 38q-32 14 -70 14t-68 -14q-30 -12 -52 -38 q-22 -24 -32 -56q-10 -30 -10 -68v-262v-196v-114v-84v-144v-102v-44v-56q0 -38 10 -68q10 -32 32 -58q22 -24 52 -36q30 -14 68 -14t70 14q30 12 56 36q24 26 38 58q12 30 12 68v122v42h136v-164q0 -68 -22 -124q-24 -56 -70 -100q-48 -42 -102 -64t-116 -22t-116 22 t-102 64q-46 44 -70 100t-24 124z" />
<glyph unicode="D" horiz-adv-x="920" d="M152 4v816v812q104 0 314 -4q64 -4 118 -22q54 -16 100 -60q48 -46 72 -98q22 -54 22 -116v-270v-200v-118v-86v-146v-106v-46v-56q0 -64 -22 -116q-24 -54 -72 -98q-46 -42 -102 -64q-54 -22 -116 -22h-84h-60h-106h-64zM298 140h168q38 0 68 12q32 14 56 38 q26 26 38 54q14 28 14 60v270v198v118v88v146v106v44v58q0 30 -14 60q-12 28 -38 54q-24 24 -56 38q-30 12 -68 12h-126h-42v-228v-1128z" />
<glyph unicode="E" horiz-adv-x="756" d="M142 2v814v814h492v-152h-338v-588h284v-152h-286v-598h338v-138h-490z" />
<glyph unicode="F" horiz-adv-x="810" d="M160 2v816v812h492v-152h-338v-586h284v-152h-286v-738h-152z" />
<glyph unicode="G" horiz-adv-x="952" d="M154 314v262v194v114v84v142v104v42v56q0 62 24 116q22 54 70 102q46 46 102 70q54 26 116 26t116 -24t100 -70q48 -48 72 -102q24 -56 24 -118v-122v-40h-136v162q0 38 -14 70q-12 30 -38 56q-24 24 -54 38q-28 12 -62 12q-36 0 -66 -12q-30 -14 -54 -38 q-26 -26 -38 -56q-14 -32 -14 -70v-262v-194v-114v-84v-144v-102v-44v-56q0 -38 14 -70q12 -30 38 -56q24 -24 54 -38q30 -12 66 -12q34 0 62 12q30 14 54 38q26 26 38 56q14 32 14 70v110v84v144v88h-200v152h336v-886h-136v50q-38 -24 -82 -38q-44 -12 -94 -12 q-64 0 -118 22t-100 64q-48 44 -70 100q-24 56 -24 124z" />
<glyph unicode="H" horiz-adv-x="906" d="M138 2v816v814h138v-674h352v674h138v-1630h-138v816h-352v-816h-138z" />
<glyph unicode="I" horiz-adv-x="536" d="M202 2v920v704h150v-1624h-150z" />
<glyph unicode="J" horiz-adv-x="900" d="M136 312q0 122 0 114q0 -6 0 48h150v-164q0 -38 10 -68q12 -28 32 -50q22 -22 52 -32q28 -12 66 -12t70 12q30 10 54 32t36 50q12 30 12 68v344v256v152v112v54v44v112v112v58v74h138v-1316q0 -60 -22 -116q-24 -54 -70 -100q-48 -46 -102 -70t-116 -24q-60 0 -114 24 t-102 70q-46 46 -70 100q-24 56 -24 116z" />
<glyph unicode="K" horiz-adv-x="906" d="M152 2v814v814h152v-812q112 272 336 812h138q-92 -224 -274 -674q90 -318 274 -954h-138q-74 250 -226 752q-36 -96 -110 -290v-462h-152z" />
<glyph unicode="L" horiz-adv-x="778" d="M146 2v814v814h138v-1490h336v-138h-474z" />
<glyph unicode="M" horiz-adv-x="1202" d="M184 2v1628h186l228 -1320q74 440 224 1320h188v-1628h-138v1052q-58 -350 -176 -1052h-200q-58 352 -176 1052v-1052h-136z" />
<glyph unicode="N" horiz-adv-x="994" d="M160 4v812v812h200q96 -410 288 -1226v1226h138v-1626h-188q-96 408 -286 1226v-1224h-152z" />
<glyph unicode="O" horiz-adv-x="936" d="M148 310v142v122v196v116v86v142v104v42v58q4 66 26 120q20 52 68 98q46 48 102 72q54 22 116 22q64 0 118 -22q54 -24 102 -72q46 -46 70 -100t24 -116v-264v-196v-116v-84v-144v-104v-44v-58q0 -60 -24 -114t-70 -102q-48 -46 -102 -70t-118 -24q-62 0 -116 24 q-56 24 -102 70q-48 48 -70 102q-24 54 -24 114zM288 304q0 -34 10 -60q12 -28 36 -48q24 -22 56 -34q30 -10 68 -10t70 10q32 12 56 34q24 20 36 50t12 68v264v194v116v84v94v50v104v42v58q0 38 -12 68q-12 28 -36 50q-26 22 -56 32q-32 12 -70 12t-68 -12q-30 -10 -54 -32 q-26 -22 -38 -50q-10 -30 -10 -68v-264v-196v-114v-86v-142v-104v-44v-56v-10z" />
<glyph unicode="P" horiz-adv-x="876" d="M158 6v812v810h238q58 -2 114 -22q58 -20 106 -64q46 -44 70 -96q24 -54 24 -116v-72v-52v-92v-58q0 -64 -24 -118t-70 -102q-48 -46 -102 -70q-56 -24 -118 -24q-76 0 -72 0q6 0 -28 0v-736h-138zM296 890h100q38 0 68 10q32 12 52 34q22 20 34 52q10 30 10 68v72v52v92 v58q0 30 -10 60q-12 28 -34 54q-20 24 -52 38q-30 12 -68 12q-76 0 -72 0q6 0 -28 0v-152v-450z" />
<glyph unicode="Q" horiz-adv-x="964" d="M154 332v260v192v114v84v142v102v42v56q0 62 22 114q24 54 70 100t102 70q54 24 116 24q64 0 118 -24q52 -24 100 -70q46 -46 68 -100q24 -52 24 -114v-260v-194v-114v-84v-142v-102v-44v-56q0 -60 -24 -114q-22 -52 -68 -100h-4q-2 -2 -4 -2q114 -105 114 -106l-1 1 l49 -45q-34 -32 -100 -100l-186 174q2 2 6 2q-22 -6 -46 -10q-22 -4 -48 -4q-62 0 -116 24q-54 22 -100 70q-46 46 -70 100q-22 52 -22 114zM292 332q2 -34 12 -66q12 -30 34 -52q26 -20 56 -32q32 -10 68 -10q38 0 70 10q30 12 54 32q26 22 36 50q12 30 12 68v260v192v114 v84v142v102v42v56q0 38 -12 66q-12 30 -36 52q-24 20 -56 32q-30 10 -68 10q-36 0 -68 -10q-32 -12 -56 -32q-24 -22 -36 -52q-10 -28 -10 -66v-260v-194v-62v-52v-84v-140v-102v-44v-54z" />
<glyph unicode="R" horiz-adv-x="940" d="M162 2v816v816h246q66 -4 116 -26q50 -20 96 -68q48 -48 72 -102q22 -54 22 -116v-68v-52v-88v-54q0 -94 -44 -164t-132 -114q38 -116 66 -204t50 -152q16 -50 28 -88t22 -66q36 -112 40 -128q6 -16 46 -142h-152l-240 738h-100v-738h-136zM300 892h102q38 0 70 12 q32 10 58 32q24 22 38 52q12 32 12 70v68v52v88v54q0 38 -12 70q-14 30 -38 56q-26 26 -58 38t-70 12q-76 0 -72 0t-30 0v-152v-452z" />
<glyph unicode="S" horiz-adv-x="856" d="M120 314v82v62v106v66h152v-316q0 -38 12 -70q14 -30 38 -56q26 -26 56 -38q28 -12 66 -12q34 0 62 12q30 12 56 38q24 26 38 56q12 32 12 70v48v36v64v40q0 68 -62 152q-60 82 -184 180t-182 178t-60 152v82v74q8 62 26 116q16 54 64 100q48 48 102 72q56 24 118 24 t116 -22q54 -24 100 -72q48 -46 72 -100q22 -54 22 -116v-124v-40h-136v162q0 38 -14 68q-12 32 -38 56q-24 26 -54 38q-30 14 -64 14t-64 -14q-30 -12 -56 -38q-26 -24 -38 -56q-12 -30 -12 -68v-48v-16q0 -76 58 -162q60 -88 180 -184q120 -98 180 -182q58 -84 58 -152 v-68v-52v-88v-54q0 -70 -22 -126q-24 -56 -72 -100q-46 -42 -100 -64t-116 -22q-64 0 -118 22t-102 64q-48 44 -70 100q-24 56 -24 126z" />
<glyph unicode="T" horiz-adv-x="896" d="M130 1492v136h624v-136h-236v-1486h-152v1486h-236z" />
<glyph unicode="U" horiz-adv-x="902" d="M142 316v96v250v254v150v112v54v44v112v114v56v74h138v-1316q0 -38 12 -66q12 -30 36 -52q26 -22 56 -32q32 -10 70 -10q36 0 68 10t56 32q26 22 36 52q12 28 12 66v346v254v150v112v54v44v112v114v56v74h142v-1316q0 -60 -24 -116q-22 -54 -70 -100q-46 -48 -100 -70 q-56 -24 -118 -24q-64 0 -118 24q-54 22 -102 70q-46 46 -70 100q-24 56 -24 116z" />
<glyph unicode="V" horiz-adv-x="882" d="M118 1632h138q58 -422 176 -1266l162 1266h152q-76 -542 -226 -1630h-190q-70 544 -212 1630z" />
<glyph unicode="W" horiz-adv-x="1382" d="M116 1628h138l174 -1272l162 1272h200l162 -1272l174 1272h138q-70 -540 -212 -1622h-202q-52 408 -160 1226q-54 -408 -164 -1224h-200z" />
<glyph unicode="X" horiz-adv-x="950" d="M164 2q78 272 238 814q-80 272 -238 814h150l162 -552l162 552h152q-80 -270 -240 -812l240 -816h-152l-162 552q-54 -184 -164 -552h-148z" />
<glyph unicode="Y" horiz-adv-x="902" d="M130 1632h138q60 -224 176 -674q60 224 178 674h138l-240 -966v-668h-150v668z" />
<glyph unicode="Z" horiz-adv-x="938" d="M154 2v138q160 448 476 1344h-476v152h628v-152q-158 -448 -476 -1344h476v-138h-628z" />
<glyph unicode="_" horiz-adv-x="768" d="M102 -2v120h548v-120h-548z" />
<glyph unicode="`" d="M526 1506q44 68 130 202h126q-42 -68 -126 -202h-130z" />
<glyph unicode="a" horiz-adv-x="710" d="M88 6q64 462 192 1384h150q64 -462 190 -1384h-128q-46 362 -138 1084q-46 -362 -138 -1084h-128z" />
<glyph unicode="b" horiz-adv-x="720" d="M128 0v696v690h218h10q52 0 88 -20q42 -20 82 -60t60 -88q20 -46 20 -98v-60v-44v-76v-46q0 -58 -24 -110q-22 -50 -70 -94q48 -42 70 -92q24 -52 24 -110v-58v-44v-74v-48q0 -58 -20 -104q-20 -48 -60 -86q-40 -36 -86 -54q-46 -20 -98 -20h-56h-42h-72h-44zM258 118h86 q32 0 56 10q26 12 44 32q18 22 28 48q8 26 8 60v58v42v76v46q0 32 -8 58q-10 26 -28 44q-18 20 -44 28q-26 10 -56 10h-66h-20v-130v-382zM258 756h86q32 0 56 12q26 10 44 32t28 44q8 24 8 50v58v44v74v46q0 34 -8 60q-10 28 -28 50t-44 32t-56 10h-66h-20v-128v-384z" />
<glyph unicode="c" horiz-adv-x="786" d="M124 266v224v166v98v72v140v154q0 52 20 98t60 86t86 62q46 20 98 20t98 -20t86 -60q42 -40 62 -86q20 -48 20 -100v-104v-34h-116v138q0 32 -12 60q-10 26 -32 46q-22 22 -48 34q-26 10 -58 10t-58 -10q-26 -12 -44 -34q-18 -20 -28 -46q-10 -28 -10 -60v-224v-166v-96 v-72v-142v-154q0 -32 10 -58t28 -48t44 -32q26 -12 58 -12t58 12q26 10 48 32t32 48q12 26 12 58v104v36h116v-140q0 -58 -20 -106t-60 -84t-86 -56q-46 -18 -98 -18q-54 0 -100 18q-46 20 -86 56t-60 84t-20 106z" />
<glyph unicode="d" horiz-adv-x="816" d="M146 4v692v690q88 2 262 2q56 -2 104 -20t88 -56t60 -82q20 -46 20 -100v-228v-170v-98v-74v-144v-158q0 -54 -20 -98q-20 -46 -60 -82t-86 -56q-48 -18 -102 -18h-68h-52h-90h-56zM272 118h140q34 0 60 12q26 10 48 32q20 22 32 46q10 22 10 50v230v90v78v100v74v142 v158q0 26 -10 52q-12 24 -32 44q-22 22 -48 34q-26 10 -60 10h-106h-34v-288v-864z" />
<glyph unicode="e" horiz-adv-x="678" d="M126 2v694v690h418v-128h-288v-500h242v-130h-244v-510h288v-116h-416z" />
<glyph unicode="f" horiz-adv-x="688" d="M140 2v694v690h416v-128h-286v-500h242v-130h-244v-626h-128z" />
<glyph unicode="g" horiz-adv-x="782" d="M126 268v224v164v98v72v140v154q0 52 20 98t60 86t88 62q46 20 98 20q54 0 100 -20t86 -60t60 -86q22 -48 22 -100v-104v-34h-118v138q0 32 -10 60q-12 26 -32 46q-22 22 -46 34q-26 10 -54 10q-30 0 -56 -10q-26 -12 -48 -34q-20 -20 -32 -46q-10 -28 -10 -60v-224v-166 v-96v-72v-142v-154q0 -32 10 -58q12 -26 32 -48q22 -22 48 -32q24 -12 56 -12q28 0 54 12q24 10 46 32q20 22 32 48q10 26 10 58v96v70v124v74h-170v130h288v-756h-118v44q-32 -22 -68 -32q-38 -12 -82 -12q-52 0 -100 18q-46 20 -86 56t-60 84t-20 106z" />
<glyph unicode="h" horiz-adv-x="802" d="M140 8v694v690h116v-574h300v574h116v-1384h-116v692h-300v-692h-116z" />
<glyph unicode="i" horiz-adv-x="504" d="M182 2v892v492h130v-1088v-296h-130z" />
<glyph unicode="j" horiz-adv-x="798" d="M134 266q0 104 0 98t0 40h126v-140q0 -32 10 -56q10 -26 28 -44t42 -28q26 -8 58 -8t58 8q26 10 46 28q22 18 32 44q10 24 10 56v294v218v128v96v160v116v48v62h118v-1120q0 -52 -20 -98t-60 -86t-86 -60t-98 -20t-98 20t-86 60t-60 86t-20 98z" />
<glyph unicode="k" horiz-adv-x="768" d="M122 2v694v690h128v-690l288 690h116q-78 -190 -234 -572q78 -272 234 -812h-116q-64 214 -194 640q-30 -82 -94 -246v-394h-128z" />
<glyph unicode="l" horiz-adv-x="660" d="M128 2v694v690h116v-1268h288v-116h-404z" />
<glyph unicode="m" horiz-adv-x="1002" d="M150 2v692v692h158q66 -374 194 -1122q62 374 190 1122h160v-1384h-118v896q-48 -300 -148 -896h-170q-50 298 -150 896v-896h-116z" />
<glyph unicode="n" horiz-adv-x="800" d="M134 4v692v690h170l246 -1044v1044h116v-1384h-160q-80 348 -242 1044v-1042h-130z" />
<glyph unicode="o" horiz-adv-x="800" d="M128 264v224v166v98v72v142v48v108q8 58 24 102q16 42 56 82t86 60t100 20t100 -20t86 -60t60 -86t20 -98v-224v-166v-98v-74v-140v-156q0 -52 -20 -98t-60 -86t-86 -60t-100 -20t-100 20t-86 60t-60 86t-20 98zM246 266q2 -28 12 -54q10 -28 28 -46q22 -18 48 -28 q26 -8 58 -8t60 8q26 10 46 28q22 18 32 44q10 24 10 56v224v90v76v98v74v140v154q0 32 -10 58q-12 24 -32 42q-20 20 -48 28q-26 10 -58 10t-58 -10q-26 -8 -46 -28q-22 -18 -32 -42q-10 -26 -10 -58v-224v-166v-54v-44v-72v-140v-156z" />
<glyph unicode="p" horiz-adv-x="722" d="M136 6v692v688h202q52 0 100 -18q46 -18 86 -56q40 -36 60 -82t20 -98v-165v1v1v-69q0 -54 -20 -100q-20 -48 -60 -88t-86 -60q-48 -18 -100 -18q-64 0 -62 0q4 0 -24 0v-628h-116zM252 758h86q32 0 58 10q26 8 44 26q18 20 28 46q10 24 10 58v165v-1v-1v69q0 26 -10 52 q-10 24 -28 44q-18 22 -44 34q-26 10 -58 10q-64 0 -62 0q4 0 -24 0v-130v-382z" />
<glyph unicode="q" horiz-adv-x="846" d="M150 266v224v166v98v74v140v154q0 52 20 98t60 86t88 60t102 20t100 -20t86 -60t60 -86t20 -98v-224v-166v-98v-74v-140v-156q0 -52 -20 -98t-60 -86h-4q0 -2 -2 -2q98 -91 98 -92l40 -38l-86 -86q-52 50 -160 150q2 2 6 2q-20 -6 -40 -8q-20 -4 -40 -4q-54 0 -100 20 q-48 20 -88 60t-60 86t-20 98zM270 266q0 -32 10 -56q10 -26 30 -44q22 -18 48 -28q26 -8 60 -8q32 0 58 8q28 10 48 28q22 18 30 44q10 24 10 56v224v90v76v98v74v140v154q0 32 -10 58q-10 24 -30 42q-22 20 -48 28q-26 10 -58 10q-34 0 -60 -10q-28 -8 -48 -28 q-20 -18 -30 -42q-10 -26 -10 -58v-224v-166v-54v-44v-72v-140v-156z" />
<glyph unicode="r" horiz-adv-x="784" d="M140 2v694v690h204h6q50 0 94 -18q46 -22 86 -62t60 -86t20 -98q0 -166 0 -158v1v-65q0 -80 -38 -140t-112 -96q32 -100 56 -174t42 -128q14 -44 24 -76t18 -56q30 -94 34 -108t38 -120h-128q-68 210 -202 626h-86v-626h-116zM258 758h86q32 0 58 10q28 8 50 26 q22 20 32 46q10 24 10 58q0 166 0 158v-1v65q0 32 -10 60q-10 26 -32 46q-22 22 -48 34q-26 10 -60 10q-66 0 -62 0t-24 0v-130v-382z" />
<glyph unicode="s" horiz-adv-x="742" d="M106 266v72v50v90v56h130v-268q0 -32 10 -58t32 -48t46 -32q26 -12 56 -12t54 12q26 10 46 32q22 22 34 48q10 26 10 58q0 120 0 114q0 -8 0 46q0 58 -52 130q-52 70 -158 152q-104 84 -152 152q-50 66 -52 128v64v68q6 54 20 100q16 44 56 84t88 62q46 20 98 20t98 -20 t86 -60t60 -86t20 -98q0 -104 0 -98t0 -40h-116v136q0 32 -10 60q-12 26 -34 46q-20 22 -46 34q-24 10 -54 10q-28 0 -54 -10q-26 -12 -48 -34q-22 -20 -32 -46q-10 -28 -10 -60q0 -40 0 -38t0 -14q0 -66 50 -140q50 -72 152 -156q102 -82 152 -154q50 -70 50 -128v-159v1v1 v-67q0 -58 -20 -106t-60 -84t-86 -56q-46 -18 -98 -18q-54 0 -100 18q-46 20 -86 56t-60 84t-20 106z" />
<glyph unicode="t" horiz-adv-x="776" d="M122 1270v116h532v-116h-202v-1268h-130v1268h-200z" />
<glyph unicode="u" horiz-adv-x="772" d="M122 266v294v218v126v96v160v116v48v62h116v-1120q0 -32 10 -56q12 -26 32 -44t48 -28q26 -8 58 -8t60 8q26 10 46 28q22 18 32 44q10 24 10 56v294v218v126v96v160v116v48v62h120v-1120q0 -52 -20 -98t-60 -86t-86 -60t-100 -20t-100 20t-86 60t-60 86t-20 98z" />
<glyph unicode="v" horiz-adv-x="752" d="M104 1386h118q48 -358 148 -1074l138 1074h128q-64 -460 -192 -1384h-160q-60 462 -180 1384z" />
<glyph unicode="w" d="M84 1386h116q50 -362 150 -1084q46 362 138 1084h172q46 -362 136 -1084q50 362 150 1084h116q-60 -460 -180 -1384h-172q-46 350 -136 1046q-46 -348 -140 -1044h-172q-60 462 -178 1382z" />
<glyph unicode="x" horiz-adv-x="822" d="M134 2q68 230 204 692q-68 232 -204 692h130q46 -156 136 -468l138 468h128q-66 -230 -202 -690q68 -230 202 -694h-128q-46 156 -138 470q-46 -158 -138 -470h-128z" />
<glyph unicode="y" horiz-adv-x="746" d="M102 1386h118l150 -570q50 190 148 570h118q-68 -272 -204 -818v-566h-126v566q-68 272 -204 818z" />
<glyph unicode="z" horiz-adv-x="800" d="M134 2v116q134 380 404 1140h-404v128h532v-128l-402 -1140h402v-116h-532z" />
<glyph unicode="~" horiz-adv-x="604" d="M70 696l20 30q10 12 12 14q26 28 52 42t54 14h18h6q10 -4 20 -6t18 -6l20 -12q10 -8 22 -16l20 -12q8 -6 14 -10q10 -6 18 -8q10 -4 18 -4q4 0 8 2q2 0 8 2q4 4 8 6q6 4 10 8q4 6 8 8q2 4 4 6q4 4 6 8q4 6 6 12q4 6 6 10q2 2 2 6l52 -38l18 -14q-12 -20 -22 -34 q-10 -12 -16 -18q-26 -26 -52 -40t-52 -14h-4h-2q-22 2 -50 16t-62 40q-16 12 -28 18t-22 6q-6 0 -10 -2q-2 0 -8 -2q-6 -4 -10 -6q-6 -4 -10 -8q-2 -6 -8 -12q-4 -4 -10 -12q-6 -6 -10 -12q-4 -4 -4 -8l-52 34z" />
<glyph unicode="&#xad;" horiz-adv-x="520" d="M116 580v120h276v-120h-276z" />
<glyph unicode="&#xb4;" d="M526 1506q44 68 130 202h126q-42 -68 -126 -202h-130z" />
<glyph unicode="&#xbb;" />
<glyph unicode="&#xbf;" horiz-adv-x="982" d="M152 428v10q0 96 36 192t106 192l70 96l24 30q30 46 44 162q16 114 16 202h132l44 -2q-6 -78 -10 -176t-18 -140q-12 -42 -44 -98q-32 -54 -80 -120l-54 -76l-18 -26q-34 -54 -54 -112q-18 -58 -18 -118q-2 -60 10 -106q10 -48 32 -80q22 -34 52 -52q32 -18 72 -18 q38 0 70 14t58 46q26 30 38 70q14 42 14 92h134l44 -2q-2 -92 -28 -168q-24 -74 -74 -128t-114 -82q-62 -26 -138 -26h-4q-80 0 -144 30t-108 88q-46 56 -68 136q-22 76 -22 170zM436 1558q0 18 8 36t22 32q14 12 32 20t38 8q18 0 36 -8t32 -22q12 -12 20 -32q8 -18 8 -36 q0 -20 -8 -38t-22 -32q-12 -12 -32 -20q-18 -8 -36 -8q-20 0 -38 8t-32 22q-12 14 -20 32t-8 38z" />
<glyph unicode="&#xc1;" d="M308 0q74 544 226 1632h176q76 -544 226 -1632h-154q-54 424 -160 1274q-54 -424 -162 -1274h-152zM566 1766q50 80 152 240h150l-150 -240h-152z" />
<glyph unicode="&#xc3;" />
<glyph unicode="&#xc9;" horiz-adv-x="830" d="M176 -2v820v818h494v-152h-342v-592h290v-150h-290v-606h340v-138h-492zM352 1772l138 240h144q-48 -80 -142 -240h-140z" />
<glyph unicode="&#xcd;" horiz-adv-x="522" d="M180 2v926v704h152v-1224v-406h-152zM190 1758q44 80 136 238h140q-46 -80 -140 -238h-136z" />
<glyph unicode="&#xd1;" horiz-adv-x="940" d="M158 6v810v810h198q96 -406 288 -1220v1220h136v-1620h-186q-96 406 -286 1220v-1220h-150zM194 1836q14 22 24 36t14 18q28 32 60 48q30 16 62 16h22h6q12 -4 24 -6t22 -8q12 -6 24 -14t24 -18q14 -8 24 -16q10 -6 18 -10q10 -6 20 -10t20 -4q6 0 10 2q4 0 10 2 q4 4 10 8t10 10q6 4 10 8t6 8t6 10q4 4 8 12l6 12t4 6l60 -44l20 -14q-14 -24 -26 -40t-20 -24q-28 -30 -58 -46t-64 -16h-2h-2q-28 2 -60 18t-72 48q-18 14 -32 20q-16 8 -28 8q-6 0 -10 -2t-10 -2l-12 -8t-10 -10t-10 -12t-12 -14q-8 -10 -12 -14q-4 -6 -6 -10l-58 40z " />
<glyph unicode="&#xd3;" horiz-adv-x="936" d="M162 310v264v196v114v86v144v102v44v56q6 58 26 114t68 102q44 46 100 70t116 24q64 0 118 -24q54 -22 100 -70q46 -46 70 -100t24 -116v-264v-194v-116v-84v-144v-104v-42v-58q0 -60 -24 -114q-22 -54 -70 -100q-46 -46 -100 -70q-56 -24 -118 -24t-116 24 q-56 22 -100 70q-46 46 -70 100t-24 114zM298 310q16 -38 50 -116q26 -22 56 -32q32 -10 70 -10q40 0 72 10q30 10 56 32q24 20 36 50t12 66v264v196v114v86v144v102v44v56q0 38 -12 68q-12 28 -36 50q-28 20 -58 32q-32 10 -72 10q-38 0 -70 -10q-32 -12 -56 -32 q-24 -22 -36 -50q-12 -30 -12 -68v-264v-194v-116v-84v-94v-50v-104v-42v-58zM404 1752q46 78 136 236h140q-46 -78 -140 -236h-136z" />
<glyph unicode="&#xda;" horiz-adv-x="948" d="M164 310v96v250v256v150v112v54v44v112v114v56v76h136v-1320q0 -38 12 -68t38 -50q24 -22 56 -32t68 -10q38 0 70 10t56 32q24 20 36 50t12 68v346v256v150v112v54v44v112v114v56v76h138v-1320q0 -62 -24 -116q-24 -56 -70 -102q-44 -46 -98 -70t-118 -24q-62 0 -118 24 q-54 24 -100 70t-70 102q-24 54 -24 116zM408 1756q46 80 138 238h140q-46 -78 -140 -238h-138z" />
<glyph unicode="&#xe1;" horiz-adv-x="760" d="M108 4q64 462 194 1386h150q62 -462 190 -1386h-130q-46 360 -136 1082q-46 -360 -138 -1082h-130zM328 1506q44 68 130 202h126q-42 -68 -126 -202h-130z" />
<glyph unicode="&#xe3;" />
<glyph unicode="&#xe9;" horiz-adv-x="660" d="M124 0v694v694h420v-130h-290v-500h244v-128h-244v-514h288v-116h-418zM274 1504q38 68 116 202h122q-40 -66 -120 -202h-118z" />
<glyph unicode="&#xed;" horiz-adv-x="492" d="M192 -2v894v496h130v-1092v-298h-130zM200 1496q38 68 116 202h120q-40 -68 -120 -202h-116z" />
<glyph unicode="&#xf1;" horiz-adv-x="784" d="M122 4v692v692h170q82 -348 246 -1042v1042h116v-1384h-160q-80 346 -244 1042v-1042h-128zM152 1568q12 18 22 30q8 12 12 16q24 26 50 40t54 14h18q-2 0 6 0q14 -4 40 -12q8 -4 18 -12q12 -6 22 -14t20 -14q8 -6 14 -10q10 -6 20 -8q8 -4 16 -4q4 0 8 2t8 2q4 4 10 8 q4 2 8 8q6 4 8 8q4 2 4 6q4 2 8 8q2 4 6 10q2 6 4 10t4 6q52 -38 48 -36q-2 2 20 -14q-12 -20 -22 -34t-16 -20q-24 -26 -50 -40t-54 -14h-4q-24 2 -52 16t-62 40q-14 12 -28 18q-12 6 -22 6h-8l-8 -4q-6 -2 -12 -6q-4 -4 -10 -8q-2 -4 -6 -10l-12 -12q-6 -8 -10 -14l-4 -8 q-50 34 -48 32q2 0 -20 14z" />
<glyph unicode="&#xf3;" horiz-adv-x="810" d="M134 262v226v168v98v74v142v156q4 48 22 96q18 50 58 88q40 40 88 60q46 20 100 20t100 -20q48 -18 86 -60q40 -38 60 -86q20 -46 20 -98v-226v-168v-100v-72v-142v-156q0 -52 -20 -100q-18 -46 -60 -86q-38 -38 -86 -58q-48 -22 -100 -22q-54 0 -102 20q-46 20 -86 60 q-38 40 -60 86q-20 48 -20 100zM250 262q16 -34 46 -100q20 -18 48 -28q26 -8 60 -8q32 0 60 8q26 10 48 28t32 42q10 26 10 58v226v92v76v98v74v142v156q0 32 -10 56q-10 26 -32 44t-50 28q-28 8 -60 8q-34 0 -60 -8q-28 -10 -48 -28q-22 -18 -32 -44q-12 -24 -12 -56v-226 v-168v-54v-46v-72v-142v-156zM344 1500q38 66 116 202h120q-40 -68 -120 -202h-116z" />
<glyph unicode="&#xfa;" horiz-adv-x="792" d="M128 268v296v216v130v94v160v116v48v64h116v-1124q0 -30 10 -56q12 -26 32 -44q22 -18 48 -26q28 -10 58 -10q32 0 60 10q28 8 48 26t30 44q12 26 12 56v296v216v130v94v160v116v48v64h116v-1124q0 -52 -20 -98t-60 -86q-36 -40 -82 -60t-102 -20q-54 0 -100 20t-86 60 q-38 40 -60 86q-20 46 -20 98zM336 1500q40 68 118 202h120q-40 -66 -120 -202h-118z" />
<glyph unicode="&#x2000;" horiz-adv-x="1006" />
<glyph unicode="&#x2001;" horiz-adv-x="2012" />
<glyph unicode="&#x2002;" horiz-adv-x="1006" />
<glyph unicode="&#x2003;" horiz-adv-x="2012" />
<glyph unicode="&#x2004;" horiz-adv-x="670" />
<glyph unicode="&#x2005;" horiz-adv-x="503" />
<glyph unicode="&#x2006;" horiz-adv-x="335" />
<glyph unicode="&#x2007;" horiz-adv-x="335" />
<glyph unicode="&#x2008;" horiz-adv-x="251" />
<glyph unicode="&#x2009;" horiz-adv-x="402" />
<glyph unicode="&#x200a;" horiz-adv-x="111" />
<glyph unicode="&#x2010;" horiz-adv-x="520" d="M116 580v120h276v-120h-276z" />
<glyph unicode="&#x2011;" horiz-adv-x="520" d="M116 580v120h276v-120h-276z" />
<glyph unicode="&#x2012;" horiz-adv-x="520" d="M116 580v120h276v-120h-276z" />
<glyph unicode="&#x2013;" horiz-adv-x="754" d="M104 636v120h548v-120h-548z" />
<glyph unicode="&#x2014;" horiz-adv-x="740" d="M112 660v120h548v-120h-548z" />
<glyph unicode="&#x2019;" horiz-adv-x="368" d="M94 1630h176q-12 -162 -36 -488h-108q-10 162 -32 488z" />
<glyph unicode="&#x201c;" horiz-adv-x="730" d="M128 1630h176q-10 -162 -34 -488h-108q-12 162 -34 488zM430 1630h176l-36 -486h-106q-12 162 -34 486z" />
<glyph unicode="&#x201d;" horiz-adv-x="734" d="M128 1632h176q-10 -162 -34 -486h-108q-12 162 -34 486zM430 1632h176q-12 -162 -36 -484h-106q-12 162 -34 484z" />
<glyph unicode="&#x202f;" horiz-adv-x="402" />
<glyph unicode="&#x205f;" horiz-adv-x="503" />
<glyph unicode="&#x25fc;" horiz-adv-x="1390" d="M0 0v1390h1390v-1390h-1390z" />
</font>
</defs>
</svg>
