<?xml version="1.0" encoding="utf-8"?>
<!-- Generator: Adobe Illustrator 16.0.0, SVG Export Plug-In . SVG Version: 6.00 Build 0)  -->
<!DOCTYPE svg PUBLIC "-//W3C//DTD SVG 1.1//EN" "http://www.w3.org/Graphics/SVG/1.1/DTD/svg11.dtd">
<svg version="1.1" id="Layer_1" xmlns="http://www.w3.org/2000/svg" xmlns:xlink="http://www.w3.org/1999/xlink" x="0px" y="0px"
	 width="49.905px" height="31.322px" viewBox="0 0 49.905 31.322" style="enable-background:new 0 0 49.905 31.322;"
	 xml:space="preserve">
<path style="fill:#384F5A;" d="M-1765.554-53.981v26.439h-60.232V74.973h51.102v26.44h-51.102v104.953h60.232v24.001h-87.238
	V-53.981H-1765.554z"/>
<path style="fill:#384F5A;" d="M-1699.501-53.981v260.348h60.235v24.001h-84.749V-53.981H-1699.501z"/>
<path style="fill:#384F5A;" d="M-1510.476-53.981v26.439h-60.232V74.973h51.096v26.44h-51.096v104.953h60.232v24.001h-87.238
	V-53.981H-1510.476z"/>
<path style="fill:#384F5A;" d="M-1412.849-53.981c14.951,0,27.971,5.096,39.051,15.25c11.077,10.177,16.617,22.587,16.617,37.227
	v179.384c0,14.653-5.54,27.06-16.617,37.227c-11.08,10.155-24.1,15.262-39.051,15.262h-56.087V-53.981H-1412.849z
	 M-1442.344,206.367h29.495c8.863,0,16.262-2.913,22.232-8.751c5.948-5.828,8.916-12.411,8.916-19.737V-1.505
	c0-7.313-2.968-13.883-8.916-19.723c-5.971-5.839-13.369-8.752-22.232-8.752h-29.495V206.367z"/>
<path style="fill:#384F5A;" d="M-1228.408-53.981v26.439h-60.236V74.973h51.1v26.44h-51.1v104.953h60.236v24.001h-87.233V-53.981
	H-1228.408z"/>
<polyline style="fill:#384F5A;" points="-1553.106,266.042 -1575.15,421.042 -1560.376,421.042 -1544.585,289.157 
	-1544.576,289.136 -1544.565,289.131 -1528.791,421.042 -1514.015,421.042 -1536.062,266.042 "/>
<path style="fill:#384F5A;" d="M-1630.846,265.429v142.424h32.951v13.141h-46.361V265.429H-1630.846z"/>
<path style="fill:#384F5A;" d="M-1466.761,265.429c8.025,0,15.115,3.008,21.243,9.01c6.141,6.016,9.21,13.031,9.21,21.043v25.135
	c0,8.754-3.636,16.33-10.917,22.711c7.281,6.381,10.917,13.941,10.917,22.697v25.146c0,8.744-3.069,15.904-9.21,21.469
	c-6.128,5.564-13.218,8.354-21.243,8.354h-24.543V265.429H-1466.761z M-1476.532,335.984h9.771c4.844,0,8.707-1.596,11.587-4.785
	c2.877-3.191,4.316-6.711,4.316-10.582v-25.135c0-4.895-1.439-8.938-4.316-12.129c-2.88-3.189-6.743-4.785-11.587-4.785h-9.771
	V335.984z M-1476.532,407.853h9.771c4.844,0,8.707-1.582,11.587-4.785c2.877-3.189,4.316-7.16,4.316-11.896v-25.146
	c0-4.906-1.439-8.719-4.316-11.459c-2.88-2.74-6.743-4.127-11.587-4.127h-9.771V407.853z"/>
<g>
	<rect x="-1249.826" y="265.55" style="fill:#25889D;" width="21.419" height="87.385"/>
	<rect x="-1315.555" y="265.55" style="fill:#29B5C8;" width="87.147" height="21.42"/>
	<polygon style="fill:#1A6D7E;" points="-1249.825,287.042 -1228.408,306.636 -1228.408,286.97 -1249.752,286.97 	"/>
	<polygon style="fill:#1F91A0;" points="-1249.752,286.97 -1228.408,286.97 -1228.408,265.55 	"/>
</g>
<g>
	<rect x="-1852.791" y="333.609" style="fill:#25889D;" width="21.419" height="87.385"/>
	<polygon style="fill:#29B5C8;" points="-1852.79,420.994 -1765.643,420.994 -1765.643,399.574 -1817.348,399.574 
		-1852.792,399.574 	"/>
	<polygon style="fill:#1A6D7E;" points="-1831.373,399.501 -1852.79,379.908 -1852.79,399.574 -1831.446,399.574 	"/>
	<polygon style="fill:#1F91A0;" points="-1831.446,399.574 -1852.79,399.574 -1852.79,420.994 	"/>
</g>
<polygon style="fill:#384F5A;" points="49.905,6.485 43.531,0 25.233,18.356 6.682,0 0,6.485 25.213,31.322 "/>
</svg>
