<?xml version="1.0" encoding="utf-8"?>
<!-- Generator: Adobe Illustrator 16.0.0, SVG Export Plug-In . SVG Version: 6.00 Build 0)  -->
<!DOCTYPE svg PUBLIC "-//W3C//DTD SVG 1.1//EN" "http://www.w3.org/Graphics/SVG/1.1/DTD/svg11.dtd">
<svg version="1.1" id="Layer_1" xmlns="http://www.w3.org/2000/svg" xmlns:xlink="http://www.w3.org/1999/xlink" x="0px" y="0px"
	 width="181.016px" height="181.062px" viewBox="0 0 181.016 181.062" style="enable-background:new 0 0 181.016 181.062;"
	 xml:space="preserve">
<g>
	<path style="fill:none;stroke:#FFFFFF;stroke-width:0.5;stroke-miterlimit:10;" d="M87.482,3.385
		c0,46.048-37.575,83.308-84.012,83.308"/>
	<path style="fill:none;stroke:#FFFFFF;stroke-width:0.5;stroke-miterlimit:10;" d="M148.649,26.364
		c-33.001,33.003-86.543,32.871-119.707-0.295"/>
	<path style="fill:none;stroke:#1A6D7E;stroke-width:0.5;stroke-miterlimit:10;" d="M154.179,30.598
		c-36.04,36.039-93.538,36.863-128.554,1.85"/>
	<path style="fill:none;stroke:#FFFFFF;stroke-width:0.5;stroke-miterlimit:10;" d="M30.999,153.889
		c32.515-32.514,85.136-32.514,117.651,0"/>
	<path style="fill:none;stroke:#FFFFFF;stroke-width:0.5;stroke-miterlimit:10;" d="M3.822,93.536
		c46.047,0,83.309,37.574,83.309,84.012"/>
	<path style="fill:none;stroke:#FFFFFF;stroke-width:0.5;stroke-miterlimit:10;" d="M25.677,32.499
		c32.561,32.56,32.641,84.935-0.194,117.771"/>
	<path style="fill:none;stroke:#1A6D7E;stroke-width:0.5;stroke-miterlimit:10;" d="M3.734,93.457
		c26.254,6.464,35.119,28.528,27.265,60.433"/>
	<path style="fill:none;stroke:#FFFFFF;stroke-width:0.5;stroke-miterlimit:10;" d="M153.973,149.276
		c-32.561-32.561-32.774-85.846,0.061-118.678"/>
	<path style="fill:none;stroke:#1A6D7E;stroke-width:0.5;stroke-miterlimit:10;" d="M93.562,177.196
		c0-46.048,37.575-83.31,84.011-83.31"/>
	<path style="fill:none;stroke:#FFFFFF;stroke-width:0.5;stroke-miterlimit:10;" d="M177.222,87.456
		c-46.048,0-83.309-37.575-83.309-84.011"/>
	<circle style="fill:none;stroke:#FFFFFF;stroke-width:0.5;stroke-miterlimit:10;" cx="90.521" cy="90.537" r="86.939"/>
	<g>
		<circle style="fill:#1F91A0;stroke:#FFFFFF;stroke-width:0.5;stroke-miterlimit:10;" cx="30.256" cy="28.008" r="3.316"/>
		<circle style="fill:#1F91A0;stroke:#FFFFFF;stroke-width:0.5;stroke-miterlimit:10;" cx="25.731" cy="32.946" r="3.317"/>
		<circle style="fill:#1F91A0;stroke:#FFFFFF;stroke-width:0.5;stroke-miterlimit:10;" cx="94.278" cy="3.592" r="3.316"/>
		<circle style="fill:#1F91A0;stroke:#FFFFFF;stroke-width:0.5;stroke-miterlimit:10;" cx="87.588" cy="3.883" r="3.316"/>
		<circle style="fill:#1F91A0;stroke:#FFFFFF;stroke-width:0.5;stroke-miterlimit:10;" cx="154.284" cy="31.094" r="3.316"/>
		<circle style="fill:#1F91A0;stroke:#FFFFFF;stroke-width:0.5;stroke-miterlimit:10;" cx="149.348" cy="26.568" r="3.318"/>
		<circle style="fill:#1F91A0;stroke:#FFFFFF;stroke-width:0.5;stroke-miterlimit:10;" cx="177.467" cy="95.117" r="3.316"/>
		<circle style="fill:#1F91A0;stroke:#FFFFFF;stroke-width:0.5;stroke-miterlimit:10;" cx="177.175" cy="88.425" r="3.317"/>
		<path style="fill:#1F91A0;stroke:#FFFFFF;stroke-width:0.5;stroke-miterlimit:10;" d="M146.236,154.711
			c0-1.833,1.485-3.319,3.317-3.319c1.831,0,3.317,1.486,3.317,3.319c0,1.83-1.486,3.316-3.317,3.316
			C147.722,158.028,146.236,156.542,146.236,154.711z"/>
		<circle style="fill:#1F91A0;stroke:#FFFFFF;stroke-width:0.5;stroke-miterlimit:10;" cx="154.079" cy="149.774" r="3.317"/>
		<circle style="fill:#1F91A0;stroke:#FFFFFF;stroke-width:0.5;stroke-miterlimit:10;" cx="87.176" cy="177.482" r="3.316"/>
		<circle style="fill:#1F91A0;stroke:#FFFFFF;stroke-width:0.5;stroke-miterlimit:10;" cx="93.867" cy="177.191" r="3.317"/>
		<circle style="fill:#1F91A0;stroke:#FFFFFF;stroke-width:0.5;stroke-miterlimit:10;" cx="26.76" cy="149.979" r="3.316"/>
		<circle style="fill:#1F91A0;stroke:#FFFFFF;stroke-width:0.5;stroke-miterlimit:10;" cx="31.696" cy="154.506" r="3.317"/>
		<circle style="fill:#1F91A0;stroke:#FFFFFF;stroke-width:0.5;stroke-miterlimit:10;" cx="3.577" cy="87.192" r="3.317"/>
		<circle style="fill:#1F91A0;stroke:#FFFFFF;stroke-width:0.5;stroke-miterlimit:10;" cx="3.868" cy="93.883" r="3.317"/>
	</g>
</g>
</svg>
