<?xml version="1.0" encoding="utf-8"?>
<!-- Generator: Adobe Illustrator 16.0.0, SVG Export Plug-In . SVG Version: 6.00 Build 0)  -->
<!DOCTYPE svg PUBLIC "-//W3C//DTD SVG 1.1//EN" "http://www.w3.org/Graphics/SVG/1.1/DTD/svg11.dtd">
<svg version="1.1" id="Layer_1" xmlns="http://www.w3.org/2000/svg" xmlns:xlink="http://www.w3.org/1999/xlink" x="0px" y="0px"
	 width="624.384px" height="475.047px" viewBox="0 0 624.384 475.047" style="enable-background:new 0 0 624.384 475.047;"
	 xml:space="preserve">
<path style="fill:#384F5A;" d="M87.238,0v26.439H27.006v102.516h51.102v26.44H27.006v104.953h60.232v24.001H0V0H87.238z"/>
<path style="fill:#384F5A;" d="M153.291,0v260.348h60.235v24.001h-84.749V0H153.291z"/>
<path style="fill:#384F5A;" d="M342.316,0v26.439h-60.232v102.516h51.096v26.44h-51.096v104.953h60.232v24.001h-87.238V0H342.316z"
	/>
<path style="fill:#384F5A;" d="M439.943,0c14.951,0,27.971,5.096,39.051,15.25c11.077,10.177,16.617,22.587,16.617,37.227V231.86
	c0,14.653-5.54,27.06-16.617,37.227c-11.08,10.155-24.1,15.262-39.051,15.262h-56.087V0H439.943z M410.448,260.348h29.495
	c8.863,0,16.262-2.913,22.232-8.751c5.948-5.828,8.916-12.411,8.916-19.737V52.477c0-7.313-2.968-13.883-8.916-19.723
	c-5.971-5.839-13.369-8.752-22.232-8.752h-29.495V260.348z"/>
<path style="fill:#384F5A;" d="M624.384,0v26.439h-60.236v102.516h51.1v26.44h-51.1v104.953h60.236v24.001H537.15V0H624.384z"/>
<polyline style="fill:#384F5A;" points="299.686,320.024 277.642,475.024 292.416,475.024 308.207,343.138 308.216,343.118 
	308.227,343.113 324.001,475.024 338.777,475.024 316.73,320.024 "/>
<path style="fill:#384F5A;" d="M221.946,319.411v142.424h32.951v13.141h-46.361V319.411H221.946z"/>
<path style="fill:#384F5A;" d="M386.031,319.411c8.025,0,15.115,3.008,21.243,9.01c6.141,6.016,9.21,13.031,9.21,21.043v25.135
	c0,8.754-3.636,16.33-10.917,22.711c7.281,6.381,10.917,13.941,10.917,22.697v25.146c0,8.744-3.069,15.904-9.21,21.469
	c-6.128,5.564-13.218,8.354-21.243,8.354h-24.543V319.411H386.031z M376.26,389.965h9.771c4.844,0,8.707-1.596,11.587-4.785
	c2.877-3.191,4.316-6.711,4.316-10.582v-25.135c0-4.895-1.439-8.938-4.316-12.129c-2.88-3.189-6.743-4.785-11.587-4.785h-9.771
	V389.965z M376.26,461.834h9.771c4.844,0,8.707-1.582,11.587-4.785c2.877-3.189,4.316-7.16,4.316-11.896v-25.146
	c0-4.906-1.439-8.719-4.316-11.459c-2.88-2.74-6.743-4.127-11.587-4.127h-9.771V461.834z"/>
<g>
	<rect x="602.966" y="319.532" style="fill:#25889D;" width="21.419" height="87.385"/>
	<rect x="537.237" y="319.532" style="fill:#29B5C8;" width="87.147" height="21.42"/>
	<polygon style="fill:#1A6D7E;" points="602.967,341.024 624.384,360.618 624.384,340.952 603.04,340.952 	"/>
	<polygon style="fill:#1F91A0;" points="603.04,340.952 624.384,340.952 624.384,319.532 	"/>
</g>
<g>
	<rect x="0.001" y="387.59" style="fill:#25889D;" width="21.419" height="87.385"/>
	<polygon style="fill:#29B5C8;" points="0.002,474.975 87.149,474.975 87.149,453.555 35.444,453.555 0,453.555 	"/>
	<polygon style="fill:#1A6D7E;" points="21.419,453.483 0.002,433.889 0.002,453.555 21.346,453.555 	"/>
	<polygon style="fill:#1F91A0;" points="21.346,453.555 0.002,453.555 0.002,474.975 	"/>
</g>
</svg>
