<?xml version="1.0" encoding="utf-8"?>
<!-- Generator: Adobe Illustrator 16.0.0, SVG Export Plug-In . SVG Version: 6.00 Build 0)  -->
<!DOCTYPE svg PUBLIC "-//W3C//DTD SVG 1.1//EN" "http://www.w3.org/Graphics/SVG/1.1/DTD/svg11.dtd">
<svg version="1.1" xmlns="http://www.w3.org/2000/svg" xmlns:xlink="http://www.w3.org/1999/xlink" x="0px" y="0px" width="99.81px"
	 height="99.775px" viewBox="0 0 99.81 99.775" style="enable-background:new 0 0 99.81 99.775;" xml:space="preserve">
<g id="Layer_2" style="display:none;">
	<rect x="-68.833" y="-93.5" style="display:inline;fill:#BF0000;" width="272.667" height="234.667"/>
</g>
<g id="Layer_3" style="display:none;">
	<g style="display:inline;">
		<path style="fill:#FFFFFF;" d="M40.462,39.854c0-4.611-3.137-4.611-3.137-4.611h-1.661H24.419v9.894h12.106
			C38.617,45.136,40.462,44.467,40.462,39.854z"/>
		<path style="fill:#FFFFFF;" d="M37.326,51.971H24.419v11.85H36.73c1.852-0.053,5.27-0.633,5.27-5.76
			C42,51.909,37.326,51.971,37.326,51.971z"/>
		<path style="fill:#FFFFFF;" d="M70.368,45.136c-6.849,0-7.804,6.835-7.804,6.835H77.13C77.13,51.971,77.217,45.136,70.368,45.136z
			"/>
		<path style="fill:#FFFFFF;" d="M50,1.125C23.007,1.125,1.125,23.008,1.125,50S23.007,98.875,50,98.875S98.875,76.992,98.875,50
			S76.993,1.125,50,1.125z M60.656,29.973H78.95v5.46H60.656V29.973z M51.41,58.611c0,13.533-14.084,13.088-14.084,13.088H24.419
			H24.04h-9.787V27.361h9.787h0.379h12.906c7.012,0,12.547,3.871,12.547,11.805c0,7.935-6.766,8.438-6.766,8.438
			C52.025,47.604,51.41,58.611,51.41,58.611z M70.455,65.604c7.37,0,7.109-4.77,7.109-4.77h7.803
			c0,12.659-15.172,11.792-15.172,11.792c-18.206,0-17.036-16.95-17.036-16.95s-0.015-17.034,17.034-17.034
			c17.947,0,15.434,19.245,15.434,19.245H62.652C62.652,66.126,70.455,65.604,70.455,65.604z"/>
	</g>
</g>
<g id="Layer_4">
	<rect x="-0.001" y="26.705" style="fill:#FFFFFF;" width="17.912" height="55.157"/>
	<rect x="-0.001" y="81.862" style="fill:#FFFFFF;" width="72.872" height="17.913"/>
	<polygon style="opacity:0.1;" points="17.911,81.799 0,65.416 0,81.861 17.85,81.861 	"/>
	<polygon style="opacity:0.2;" points="17.85,81.861 0,81.861 0,99.775 	"/>
	<rect x="81.9" y="17.915" style="fill:#FFFFFF;" width="17.91" height="55.157"/>
	<rect x="26.939" style="fill:#FFFFFF;" width="72.871" height="17.915"/>
	<polygon style="opacity:0.1;" points="81.9,17.977 99.81,34.361 99.81,17.915 81.961,17.915 	"/>
	<polygon style="opacity:0.2;" points="81.961,17.915 99.81,17.915 99.81,0 	"/>
	<g>
		<g>
			<rect x="274" y="2.986" style="fill:#FFFFFF;" width="8.711" height="35.538"/>
			<polygon style="fill:#FFFFFF;" points="274.001,38.524 309.441,38.524 309.441,29.812 288.415,29.812 274,29.812 			"/>
			<polygon style="opacity:0.1;" points="282.711,29.782 274.001,21.813 274.001,29.812 282.682,29.812 			"/>
			<polygon style="opacity:0.2;" points="282.682,29.812 274.001,29.812 274.001,38.524 			"/>
		</g>
		<g>
			<rect x="313.832" y="-10" style="fill:#FFFFFF;" width="8.711" height="35.538"/>
			<polygon style="fill:#FFFFFF;" points="322.542,-10 287.102,-10 287.102,-1.287 308.129,-1.289 322.543,-1.289 			"/>
			<polygon style="opacity:0.1;" points="313.832,-1.258 322.542,6.711 322.542,-1.287 313.86,-1.287 			"/>
			<polygon style="opacity:0.2;" points="313.86,-1.287 322.542,-1.287 322.542,-10 			"/>
		</g>
	</g>
</g>
</svg>
