<svg version="1.1" xmlns="http://www.w3.org/2000/svg" xmlns:xlink="http://www.w3.org/1999/xlink" x="0px" y="0px" width="99.81px" height="99.775px" viewBox="0 0 99.81 99.775" style="enable-background:new 0 0 99.81 99.775;" xml:space="preserve"><g id="Layer_4"><g><rect x="-0.001" y="26.705" style="fill:#25889D;" width="17.912" height="55.157"/><rect x="-0.001" y="81.862" style="fill:#29B5C8;" width="72.872" height="17.913"/><polygon style="fill:#1A6D7E;" points="17.911,81.799 0,65.416 0,81.861 17.85,81.861 		"/><polygon style="fill:#1F91A0;" points="17.85,81.861 0,81.861 0,99.775 		"/><rect x="81.9" y="17.915" style="fill:#25889D;" width="17.91" height="55.157"/><rect x="26.939" style="fill:#29B5C8;" width="72.871" height="17.915"/><polygon style="fill:#1A6D7E;" points="81.9,17.977 99.81,34.361 99.81,17.915 81.961,17.915 		"/><polygon style="fill:#1F91A0;" points="81.961,17.915 99.81,17.915 99.81,0 		"/></g><g><g><rect x="274" y="2.986" style="fill:#FFFFFF;" width="8.711" height="35.538"/><polygon style="fill:#FFFFFF;" points="274.001,38.524 309.441,38.524 309.441,29.812 288.415,29.812 274,29.812 			"/><polygon style="opacity:0.1;" points="282.711,29.782 274.001,21.813 274.001,29.812 282.682,29.812 			"/><polygon style="opacity:0.2;" points="282.682,29.812 274.001,29.812 274.001,38.524 			"/></g><g><rect x="313.832" y="-10" style="fill:#FFFFFF;" width="8.711" height="35.538"/><polygon style="fill:#FFFFFF;" points="322.542,-10 287.102,-10 287.102,-1.287 308.129,-1.289 322.543,-1.289 			"/><polygon style="opacity:0.1;" points="313.832,-1.258 322.542,6.711 322.542,-1.287 313.86,-1.287 			"/><polygon style="opacity:0.2;" points="313.86,-1.287 322.542,-1.287 322.542,-10 			"/></g></g></g></svg>