<?xml version="1.0" encoding="utf-8"?>
<!-- Generator: Adobe Illustrator 16.0.0, SVG Export Plug-In . SVG Version: 6.00 Build 0)  -->
<!DOCTYPE svg PUBLIC "-//W3C//DTD SVG 1.1//EN" "http://www.w3.org/Graphics/SVG/1.1/DTD/svg11.dtd">
<svg version="1.1" id="Capa_1" xmlns="http://www.w3.org/2000/svg" xmlns:xlink="http://www.w3.org/1999/xlink" x="0px" y="0px"
	 width="63.334px" height="63.312px" viewBox="0 0 63.334 63.312" enable-background="new 0 0 63.334 63.312" xml:space="preserve">
<path d="M31.667-0.011C14.179-0.011,0,14.169,0,31.656c0,17.488,14.179,31.667,31.667,31.667c17.488,0,31.667-14.179,31.667-31.667
	C63.334,14.164,49.155-0.011,31.667-0.011z M39.854,31.653l-5.191,0.003l-0.005,19h-7.12v-19h-4.75V25.11l4.75-0.005l-0.007-3.855
	c0-5.344,1.448-8.593,7.74-8.593h5.242v6.55h-3.279c-2.45,0-2.569,0.914-2.569,2.621l-0.009,3.276h5.892L39.854,31.653z"/>
</svg>
