<?xml version="1.0" encoding="utf-8"?>
<!-- Generator: Adobe Illustrator 16.0.0, SVG Export Plug-In . SVG Version: 6.00 Build 0)  -->
<!DOCTYPE svg PUBLIC "-//W3C//DTD SVG 1.1//EN" "http://www.w3.org/Graphics/SVG/1.1/DTD/svg11.dtd">
<svg version="1.1" id="Capa_1" xmlns="http://www.w3.org/2000/svg" xmlns:xlink="http://www.w3.org/1999/xlink" x="0px" y="0px"
	 width="63.334px" height="63.312px" viewBox="-23.667 -23.667 63.334 63.312"
	 style="enable-background:new -23.667 -23.667 63.334 63.312;" xml:space="preserve">
<path style="fill:#FFFFFF;" d="M8-23.667C-9.488-23.667-23.667-9.488-23.667,8c0,17.488,14.179,31.667,31.667,31.667
	c17.488,0,31.667-14.179,31.667-31.667C39.667-9.492,25.488-23.667,8-23.667z M16.187,7.997L10.996,8l-0.005,19h-7.12V8h-4.75V1.454
	l4.75-0.005L3.864-2.406c0-5.344,1.448-8.593,7.739-8.593h5.242v6.55h-3.278c-2.451,0-2.57,0.914-2.57,2.621l-0.008,3.276h5.891
	L16.187,7.997z"/>
</svg>
