<?xml version="1.0" encoding="utf-8"?>
<!-- Generator: Adobe Illustrator 16.0.0, SVG Export Plug-In . SVG Version: 6.00 Build 0)  -->
<!DOCTYPE svg PUBLIC "-//W3C//DTD SVG 1.1//EN" "http://www.w3.org/Graphics/SVG/1.1/DTD/svg11.dtd">
<svg version="1.1" id="Layer_1" xmlns="http://www.w3.org/2000/svg" xmlns:xlink="http://www.w3.org/1999/xlink" x="0px" y="0px"
	 width="240.354px" height="180.792px" viewBox="0 0 240.354 180.792" style="enable-background:new 0 0 240.354 180.792;"
	 xml:space="preserve">
<g>
	<g>
		<path style="fill:none;stroke:#FFFFFF;stroke-width:0.5;stroke-miterlimit:10;" d="M240.045,148.12c0,2.75-2.25,5-5,5H5.288
			c-2.75,0-5-2.25-5-5V5.312c0-2.75,2.25-5,5-5h229.758c2.75,0,5,2.25,5,5V148.12z"/>
	</g>
	<g>
		<path style="fill:none;stroke:#FFFFFF;stroke-width:0.5;stroke-miterlimit:10;" d="M227.79,125.198c0,2.75-2.25,5-5,5H16.778
			c-2.75,0-5-2.25-5-5V12.952c0-2.75,2.25-5,5-5H222.79c2.75,0,5,2.25,5,5V125.198z"/>
	</g>
	
		<line style="fill:none;stroke:#FFFFFF;stroke-width:0.5;stroke-miterlimit:10;" x1="80.034" y1="153.317" x2="80.034" y2="180.059"/>
	
		<line style="fill:none;stroke:#FFFFFF;stroke-width:0.5;stroke-miterlimit:10;" x1="159.542" y1="153.317" x2="159.542" y2="180.059"/>
	
		<line style="fill:none;stroke:#FFFFFF;stroke-width:0.5;stroke-miterlimit:10;" x1="43.515" y1="180.521" x2="194.21" y2="180.521"/>
	<path style="fill:none;stroke:#FFFFFF;stroke-width:0.5;stroke-miterlimit:10;" d="M38.205,29.345c0,4.431-3.601,8.024-8.042,8.024
		c-4.442,0-8.044-3.594-8.044-8.024c0-4.429,3.602-8.022,8.044-8.022C34.604,21.323,38.205,24.917,38.205,29.345z"/>
	<line style="fill:none;stroke:#FFFFFF;stroke-width:0.5;stroke-miterlimit:10;" x1="22.251" y1="44.043" x2="37.968" y2="44.043"/>
	<line style="fill:none;stroke:#FFFFFF;stroke-width:0.5;stroke-miterlimit:10;" x1="22.251" y1="49.577" x2="37.968" y2="49.577"/>
	<line style="fill:none;stroke:#FFFFFF;stroke-width:0.5;stroke-miterlimit:10;" x1="22.251" y1="54.187" x2="37.968" y2="54.187"/>
	<line style="fill:none;stroke:#FFFFFF;stroke-width:0.5;stroke-miterlimit:10;" x1="22.251" y1="58.798" x2="35.195" y2="58.798"/>
	
		<line style="fill:none;stroke:#FFFFFF;stroke-width:0.5;stroke-miterlimit:10;" x1="43.977" y1="21.452" x2="43.977" y2="121.042"/>
	<line style="fill:none;stroke:#FFFFFF;stroke-width:0.5;stroke-miterlimit:10;" x1="11.62" y1="13.613" x2="227.79" y2="13.613"/>
	<circle style="fill:none;stroke:#FFFFFF;stroke-width:0.5;stroke-miterlimit:10;" cx="16.756" cy="10.866" r="1.58"/>
	<circle style="fill:none;stroke:#FFFFFF;stroke-width:0.5;stroke-miterlimit:10;" cx="21.643" cy="10.866" r="1.58"/>
	<circle style="fill:none;stroke:#FFFFFF;stroke-width:0.5;stroke-miterlimit:10;" cx="26.531" cy="10.866" r="1.579"/>
	<rect x="47.213" y="44.504" style="fill:#1A6D7E;" width="175.656" height="10.145"/>
	
		<rect x="46.75" y="63.409" style="opacity:0.5;fill:none;stroke:#FFFFFF;stroke-width:0.5;stroke-miterlimit:10;" width="175.657" height="10.144"/>
	<rect x="46.289" y="80.468" style="fill:#1A6D7E;" width="175.657" height="41.496"/>
	<line style="fill:none;stroke:#FFFFFF;stroke-width:0.5;stroke-miterlimit:10;" x1="221.946" y1="25.6" x2="209.002" y2="25.6"/>
	<line style="fill:none;stroke:#FFFFFF;stroke-width:0.5;stroke-miterlimit:10;" x1="203.456" y1="25.6" x2="190.512" y2="25.6"/>
	<line style="fill:none;stroke:#FFFFFF;stroke-width:0.5;stroke-miterlimit:10;" x1="184.965" y1="25.6" x2="172.022" y2="25.6"/>
	<line style="fill:none;stroke:#FFFFFF;stroke-width:0.5;stroke-miterlimit:10;" x1="166.475" y1="25.6" x2="153.532" y2="25.6"/>
</g>
</svg>
